{
  "accessors": [
    {
      "bufferView": 2,
      "componentType": 5126,
      "count": 65532,
      "max": [
        0.6514305472373962,
        0.17885129153728485,
        0.38859283924102783
      ],
      "min": [
        -0.6514541506767273,
        -0.1513211876153946,
        -0.3581889867782593
      ],
      "type": "VEC3"
    },
    {
      "bufferView": 2,
      "byteOffset": 786384,
      "componentType": 5126,
      "count": 65532,
      "max": [
        0.9999809265136719,
        0.9999926090240479,
        0.9998947381973267
      ],
      "min": [
        -0.9997726678848267,
        -0.9999754428863525,
        -0.9999738931655884
      ],
      "type": "VEC3"
    },
    {
      "bufferView": 1,
      "componentType": 5126,
      "count": 65532,
      "max": [
        1.000000238418579,
        1.000000238418579
      ],
      "min": [
        0.0,
        0.0
      ],
      "type": "VEC2"
    },
    {
      "bufferView": 0,
      "componentType": 5125,
      "count": 307092,
      "type": "SCALAR"
    },
    {
      "bufferView": 2,
      "byteOffset": 1572768,
      "componentType": 5126,
      "count": 65533,
      "max": [
        0.5269200205802917,
        0.16222603619098663,
        0.3774673044681549
      ],
      "min": [
        -0.07814869284629822,
        -0.14479896426200867,
        -0.312774121761322
      ],
      "type": "VEC3"
    },
    {
      "bufferView": 2,
      "byteOffset": 2359164,
      "componentType": 5126,
      "count": 65533,
      "max": [
        0.9705992341041565,
        0.9999949932098389,
        0.9773125052452087
      ],
      "min": [
        -0.9999687671661377,
        -0.9999942779541016,
        -0.9952620267868042
      ],
      "type": "VEC3"
    },
    {
      "bufferView": 1,
      "byteOffset": 524256,
      "componentType": 5126,
      "count": 65533,
      "max": [
        1.000000238418579,
        1.0000001192092896
      ],
      "min": [
        0.0,
        0.0
      ],
      "type": "VEC2"
    },
    {
      "bufferView": 0,
      "byteOffset": 1228368,
      "componentType": 5125,
      "count": 245910,
      "type": "SCALAR"
    },
    {
      "bufferView": 2,
      "byteOffset": 3145560,
      "componentType": 5126,
      "count": 65532,
      "max": [
        0.6381913423538208,
        0.16988499462604523,
        0.35022979974746704
      ],
      "min": [
        -0.12424518167972565,
        -0.15081067383289337,
        -0.2842215299606323
      ],
      "type": "VEC3"
    },
    {
      "bufferView": 2,
      "byteOffset": 3931944,
      "componentType": 5126,
      "count": 65532,
      "max": [
        0.9995509386062622,
        0.9999982118606567,
        0.9867042899131775
      ],
      "min": [
        -0.9998693466186523,
        -0.9999860525131226,
        -0.9996962547302246
      ],
      "type": "VEC3"
    },
    {
      "bufferView": 1,
      "byteOffset": 1048520,
      "componentType": 5126,
      "count": 65532,
      "max": [
        1.000000238418579,
        1.0000001192092896
      ],
      "min": [
        0.0,
        0.0
      ],
      "type": "VEC2"
    },
    {
      "bufferView": 0,
      "byteOffset": 2212008,
      "componentType": 5125,
      "count": 227631,
      "type": "SCALAR"
    },
    {
      "bufferView": 2,
      "byteOffset": 4718328,
      "componentType": 5126,
      "count": 65532,
      "max": [
        0.6171629428863525,
        0.17001275718212128,
        0.2154161036014557
      ],
      "min": [
        -0.6355103254318237,
        -0.1439603716135025,
        -0.27377960085868835
      ],
      "type": "VEC3"
    },
    {
      "bufferView": 2,
      "byteOffset": 5504712,
      "componentType": 5126,
      "count": 65532,
      "max": [
        0.9995509386062622,
        0.9999995231628418,
        0.997809112071991
      ],
      "min": [
        -0.9999449253082275,
        -0.9999828338623047,
        -0.9982756972312927
      ],
      "type": "VEC3"
    },
    {
      "bufferView": 1,
      "byteOffset": 1572776,
      "componentType": 5126,
      "count": 65532,
      "max": [
        0.9791663885116577,
        1.0000001192092896
      ],
      "min": [
        0.0,
        0.0
      ],
      "type": "VEC2"
    },
    {
      "bufferView": 0,
      "byteOffset": 3122532,
      "componentType": 5125,
      "count": 199113,
      "type": "SCALAR"
    },
    {
      "bufferView": 2,
      "byteOffset": 6291096,
      "componentType": 5126,
      "count": 65532,
      "max": [
        6.338348612189293e-05,
        0.16723644733428955,
        0.3580126166343689
      ],
      "min": [
        -0.5222477912902832,
        -0.15132108330726624,
        -0.31281864643096924
      ],
      "type": "VEC3"
    },
    {
      "bufferView": 2,
      "byteOffset": 7077480,
      "componentType": 5126,
      "count": 65532,
      "max": [
        0.9999654293060303,
        0.9999949932098389,
        0.9628638029098511
      ],
      "min": [
        -0.9993469715118408,
        -0.9999648332595825,
        -0.9992595911026001
      ],
      "type": "VEC3"
    },
    {
      "bufferView": 1,
      "byteOffset": 2097032,
      "componentType": 5126,
      "count": 65532,
      "max": [
        1.000000238418579,
        1.0000001192092896
      ],
      "min": [
        0.0,
        0.0
      ],
      "type": "VEC2"
    },
    {
      "bufferView": 0,
      "byteOffset": 3918984,
      "componentType": 5125,
      "count": 239160,
      "type": "SCALAR"
    },
    {
      "bufferView": 2,
      "byteOffset": 7863864,
      "componentType": 5126,
      "count": 65533,
      "max": [
        2.5335681129945442e-05,
        0.17000240087509155,
        0.3716756999492645
      ],
      "min": [
        -0.6382050514221191,
        -0.15098653733730316,
        -0.28422704339027405
      ],
      "type": "VEC3"
    },
    {
      "bufferView": 2,
      "byteOffset": 8650260,
      "componentType": 5126,
      "count": 65533,
      "max": [
        0.9998762607574463,
        0.9999994039535522,
        0.9867864847183228
      ],
      "min": [
        -0.9998571872711182,
        -0.9999793767929077,
        -0.9998080730438232
      ],
      "type": "VEC3"
    },
    {
      "bufferView": 1,
      "byteOffset": 2621288,
      "componentType": 5126,
      "count": 65533,
      "max": [
        1.000000238418579,
        1.0000001192092896
      ],
      "min": [
        0.0,
        0.0
      ],
      "type": "VEC2"
    },
    {
      "bufferView": 0,
      "byteOffset": 4875624,
      "componentType": 5125,
      "count": 230361,
      "type": "SCALAR"
    },
    {
      "bufferView": 2,
      "byteOffset": 9436656,
      "componentType": 5126,
      "count": 65532,
      "max": [
        0.20637604594230652,
        0.16923844814300537,
        0.21622510254383087
      ],
      "min": [
        -0.6172298192977905,
        -0.09570977091789246,
        -0.208210751414299
      ],
      "type": "VEC3"
    },
    {
      "bufferView": 2,
      "byteOffset": 10223040,
      "componentType": 5126,
      "count": 65532,
      "max": [
        0.999969482421875,
        0.9999995231628418,
        0.9978832006454468
      ],
      "min": [
        -0.9979049563407898,
        -0.9999135732650757,
        -0.9981985092163086
      ],
      "type": "VEC3"
    },
    {
      "bufferView": 1,
      "byteOffset": 3145552,
      "componentType": 5126,
      "count": 65532,
      "max": [
        0.9912109375,
        1.0000001192092896
      ],
      "min": [
        0.0,
        0.0
      ],
      "type": "VEC2"
    },
    {
      "bufferView": 0,
      "byteOffset": 5797068,
      "componentType": 5125,
      "count": 202665,
      "type": "SCALAR"
    },
    {
      "bufferView": 2,
      "byteOffset": 11009424,
      "componentType": 5126,
      "count": 65532,
      "max": [
        0.23787377774715424,
        0.18001244962215424,
        0.309312105178833
      ],
      "min": [
        -0.6419064402580261,
        -0.16132016479969025,
        -0.31250929832458496
      ],
      "type": "VEC3"
    },
    {
      "bufferView": 2,
      "byteOffset": 11795808,
      "componentType": 5126,
      "count": 65532,
      "max": [
        0.9983041882514954,
        0.999994158744812,
        0.9980431795120239
      ],
      "min": [
        -0.9984350204467773,
        -0.9999951124191284,
        -0.9991592168807983
      ],
      "type": "VEC3"
    },
    {
      "bufferView": 1,
      "byteOffset": 3669808,
      "componentType": 5126,
      "count": 65532,
      "max": [
        1.000000238418579,
        1.000000238418579
      ],
      "min": [
        0.0,
        0.0
      ],
      "type": "VEC2"
    },
    {
      "bufferView": 0,
      "byteOffset": 6607728,
      "componentType": 5125,
      "count": 233943,
      "type": "SCALAR"
    },
    {
      "bufferView": 2,
      "byteOffset": 12582192,
      "componentType": 5126,
      "count": 65532,
      "max": [
        0.16155485808849335,
        0.1800020933151245,
        0.37849199771881104
      ],
      "min": [
        -0.6467096209526062,
        -0.15072104334831238,
        -0.32565319538116455
      ],
      "type": "VEC3"
    },
    {
      "bufferView": 2,
      "byteOffset": 13368576,
      "componentType": 5126,
      "count": 65532,
      "max": [
        0.8886634111404419,
        0.9999921321868896,
        0.9997755289077759
      ],
      "min": [
        -0.9999641180038452,
        -0.9999996423721313,
        -0.9978631734848022
      ],
      "type": "VEC3"
    },
    {
      "bufferView": 1,
      "byteOffset": 4194064,
      "componentType": 5126,
      "count": 65532,
      "max": [
        1.000000238418579,
        1.0000001192092896
      ],
      "min": [
        0.0,
        0.0
      ],
      "type": "VEC2"
    },
    {
      "bufferView": 0,
      "byteOffset": 7543500,
      "componentType": 5125,
      "count": 261303,
      "type": "SCALAR"
    },
    {
      "bufferView": 2,
      "byteOffset": 14154960,
      "componentType": 5126,
      "count": 65532,
      "max": [
        4.145680213696323e-05,
        0.17936477065086365,
        0.2109598070383072
      ],
      "min": [
        -0.6250592470169067,
        -0.15385007858276367,
        -0.2935469150543213
      ],
      "type": "VEC3"
    },
    {
      "bufferView": 2,
      "byteOffset": 14941344,
      "componentType": 5126,
      "count": 65532,
      "max": [
        0.9994950294494629,
        0.9999779462814331,
        0.9937283396720886
      ],
      "min": [
        -0.9999642372131348,
        -0.9999994039535522,
        -0.9978508949279785
      ],
      "type": "VEC3"
    },
    {
      "bufferView": 1,
      "byteOffset": 4718320,
      "componentType": 5126,
      "count": 65532,
      "max": [
        0.9973146319389343,
        1.0000001192092896
      ],
      "min": [
        0.0,
        0.0
      ],
      "type": "VEC2"
    },
    {
      "bufferView": 0,
      "byteOffset": 8588712,
      "componentType": 5125,
      "count": 213555,
      "type": "SCALAR"
    },
    {
      "bufferView": 2,
      "byteOffset": 15727728,
      "componentType": 5126,
      "count": 65533,
      "max": [
        0.5800526142120361,
        0.1760038137435913,
        0.2556319236755371
      ],
      "min": [
        -0.6149607300758362,
        -0.16097891330718994,
        -0.30100858211517334
      ],
      "type": "VEC3"
    },
    {
      "bufferView": 2,
      "byteOffset": 16514124,
      "componentType": 5126,
      "count": 65533,
      "max": [
        0.9997888803482056,
        0.9999775886535645,
        0.9974456429481506
      ],
      "min": [
        -0.9997363090515137,
        -0.9999942779541016,
        -0.9992905855178833
      ],
      "type": "VEC3"
    },
    {
      "bufferView": 1,
      "byteOffset": 5242576,
      "componentType": 5126,
      "count": 65533,
      "max": [
        1.0000001192092896,
        1.0000001192092896
      ],
      "min": [
        0.0,
        0.0
      ],
      "type": "VEC2"
    },
    {
      "bufferView": 0,
      "byteOffset": 9442932,
      "componentType": 5125,
      "count": 224022,
      "type": "SCALAR"
    },
    {
      "bufferView": 2,
      "byteOffset": 17300520,
      "componentType": 5126,
      "count": 65532,
      "max": [
        0.6291354894638062,
        0.17516592144966125,
        0.23489677906036377
      ],
      "min": [
        -8.523366705048829e-05,
        -0.1613202691078186,
        -0.3155559301376343
      ],
      "type": "VEC3"
    },
    {
      "bufferView": 2,
      "byteOffset": 18086904,
      "componentType": 5126,
      "count": 65532,
      "max": [
        0.9414561986923218,
        0.9999866485595703,
        0.9616804122924805
      ],
      "min": [
        -0.8253968954086304,
        -0.9999997615814209,
        -0.9612141847610474
      ],
      "type": "VEC3"
    },
    {
      "bufferView": 1,
      "byteOffset": 5766840,
      "componentType": 5126,
      "count": 65532,
      "max": [
        1.0000001192092896,
        1.0000001192092896
      ],
      "min": [
        0.0,
        0.0
      ],
      "type": "VEC2"
    },
    {
      "bufferView": 0,
      "byteOffset": 10339020,
      "componentType": 5125,
      "count": 201090,
      "type": "SCALAR"
    },
    {
      "bufferView": 2,
      "byteOffset": 18873288,
      "componentType": 5126,
      "count": 65532,
      "max": [
        0.6466920375823975,
        0.17674194276332855,
        0.38403868675231934
      ],
      "min": [
        -1.9152859749738127e-05,
        -0.15041713416576385,
        -0.32017600536346436
      ],
      "type": "VEC3"
    },
    {
      "bufferView": 2,
      "byteOffset": 19659672,
      "componentType": 5126,
      "count": 65532,
      "max": [
        0.99996018409729,
        0.9999902248382568,
        0.99967360496521
      ],
      "min": [
        -0.8422697186470032,
        -0.9999810457229614,
        -0.9595939517021179
      ],
      "type": "VEC3"
    },
    {
      "bufferView": 1,
      "byteOffset": 6291096,
      "componentType": 5126,
      "count": 65532,
      "max": [
        1.000000238418579,
        1.0000001192092896
      ],
      "min": [
        0.0,
        0.0
      ],
      "type": "VEC2"
    },
    {
      "bufferView": 0,
      "byteOffset": 11143380,
      "componentType": 5125,
      "count": 212721,
      "type": "SCALAR"
    },
    {
      "bufferView": 2,
      "byteOffset": 20446056,
      "componentType": 5126,
      "count": 19172,
      "max": [
        0.6505244970321655,
        0.17885608971118927,
        0.3829929828643799
      ],
      "min": [
        -0.6505152583122253,
        -0.160727396607399,
        -0.34924793243408203
      ],
      "type": "VEC3"
    },
    {
      "bufferView": 2,
      "byteOffset": 20676120,
      "componentType": 5126,
      "count": 19172,
      "max": [
        0.9998670816421509,
        0.9999926090240479,
        0.9629040956497192
      ],
      "min": [
        -0.983644425868988,
        -0.9997575283050537,
        -0.8487027883529663
      ],
      "type": "VEC3"
    },
    {
      "bufferView": 1,
      "byteOffset": 6815352,
      "componentType": 5126,
      "count": 19172,
      "max": [
        1.000000238418579,
        1.000000238418579
      ],
      "min": [
        0.0,
        0.0
      ],
      "type": "VEC2"
    },
    {
      "bufferView": 0,
      "byteOffset": 11994264,
      "componentType": 5125,
      "count": 60450,
      "type": "SCALAR"
    }
  ],
  "asset": {
    "extras": {
      "author": "Hancock (https://sketchfab.com/hans.fredo)",
      "license": "CC-BY-4.0 (http://creativecommons.org/licenses/by/4.0/)",
      "source": "https://sketchfab.com/3d-models/open-puffer-jacket-e3fb2b37fe9343f3bdd5083f99440fe4",
      "title": "Open Puffer Jacket"
    },
    "generator": "Sketchfab-12.57.0",
    "version": "2.0"
  },
  "bufferViews": [
    {
      "buffer": 0,
      "byteLength": 12236064,
      "name": "floatBufferViews",
      "target": 34963
    },
    {
      "buffer": 0,
      "byteLength": 6968728,
      "byteOffset": 12236064,
      "byteStride": 8,
      "name": "floatBufferViews",
      "target": 34962
    },
    {
      "buffer": 0,
      "byteLength": 20906184,
      "byteOffset": 19204792,
      "byteStride": 12,
      "name": "floatBufferViews",
      "target": 34962
    }
  ],
  "buffers": [
    {
      "byteLength": 40110976,
      "uri": "scene.bin"
    }
  ],
  "materials": [
    {
      "doubleSided": true,
      "name": "Material.001",
      "pbrMetallicRoughness": {
        "baseColorFactor": [
          0.0,
          0.0,
          0.0,
          1.0
        ],
        "metallicFactor": 0.0,
        "roughnessFactor": 0.14763420462214766
      }
    }
  ],
  "meshes": [
    {
      "name": "Object_0",
      "primitives": [
        {
          "attributes": {
            "NORMAL": 1,
            "POSITION": 0,
            "TEXCOORD_0": 2
          },
          "indices": 3,
          "material": 0,
          "mode": 4
        }
      ]
    },
    {
      "name": "Object_1",
      "primitives": [
        {
          "attributes": {
            "NORMAL": 5,
            "POSITION": 4,
            "TEXCOORD_0": 6
          },
          "indices": 7,
          "material": 0,
          "mode": 4
        }
      ]
    },
    {
      "name": "Object_2",
      "primitives": [
        {
          "attributes": {
            "NORMAL": 9,
            "POSITION": 8,
            "TEXCOORD_0": 10
          },
          "indices": 11,
          "material": 0,
          "mode": 4
        }
      ]
    },
    {
      "name": "Object_3",
      "primitives": [
        {
          "attributes": {
            "NORMAL": 13,
            "POSITION": 12,
            "TEXCOORD_0": 14
          },
          "indices": 15,
          "material": 0,
          "mode": 4
        }
      ]
    },
    {
      "name": "Object_4",
      "primitives": [
        {
          "attributes": {
            "NORMAL": 17,
            "POSITION": 16,
            "TEXCOORD_0": 18
          },
          "indices": 19,
          "material": 0,
          "mode": 4
        }
      ]
    },
    {
      "name": "Object_5",
      "primitives": [
        {
          "attributes": {
            "NORMAL": 21,
            "POSITION": 20,
            "TEXCOORD_0": 22
          },
          "indices": 23,
          "material": 0,
          "mode": 4
        }
      ]
    },
    {
      "name": "Object_6",
      "primitives": [
        {
          "attributes": {
            "NORMAL": 25,
            "POSITION": 24,
            "TEXCOORD_0": 26
          },
          "indices": 27,
          "material": 0,
          "mode": 4
        }
      ]
    },
    {
      "name": "Object_7",
      "primitives": [
        {
          "attributes": {
            "NORMAL": 29,
            "POSITION": 28,
            "TEXCOORD_0": 30
          },
          "indices": 31,
          "material": 0,
          "mode": 4
        }
      ]
    },
    {
      "name": "Object_8",
      "primitives": [
        {
          "attributes": {
            "NORMAL": 33,
            "POSITION": 32,
            "TEXCOORD_0": 34
          },
          "indices": 35,
          "material": 0,
          "mode": 4
        }
      ]
    },
    {
      "name": "Object_9",
      "primitives": [
        {
          "attributes": {
            "NORMAL": 37,
            "POSITION": 36,
            "TEXCOORD_0": 38
          },
          "indices": 39,
          "material": 0,
          "mode": 4
        }
      ]
    },
    {
      "name": "Object_10",
      "primitives": [
        {
          "attributes": {
            "NORMAL": 41,
            "POSITION": 40,
            "TEXCOORD_0": 42
          },
          "indices": 43,
          "material": 0,
          "mode": 4
        }
      ]
    },
    {
      "name": "Object_11",
      "primitives": [
        {
          "attributes": {
            "NORMAL": 45,
            "POSITION": 44,
            "TEXCOORD_0": 46
          },
          "indices": 47,
          "material": 0,
          "mode": 4
        }
      ]
    },
    {
      "name": "Object_12",
      "primitives": [
        {
          "attributes": {
            "NORMAL": 49,
            "POSITION": 48,
            "TEXCOORD_0": 50
          },
          "indices": 51,
          "material": 0,
          "mode": 4
        }
      ]
    },
    {
      "name": "Object_13",
      "primitives": [
        {
          "attributes": {
            "NORMAL": 53,
            "POSITION": 52,
            "TEXCOORD_0": 54
          },
          "indices": 55,
          "material": 0,
          "mode": 4
        }
      ]
    }
  ],
  "nodes": [
    {
      "children": [
        1
      ],
      "matrix": [
        0.24010543525218964,
        0.0,
        0.0,
        0.0,
        0.0,
        5.331411651092513e-17,
        -0.24010543525218964,
        0.0,
        0.0,
        0.24010543525218964,
        5.331411651092513e-17,
        0.0,
        0.0,
        7.186001482750724e-08,
        5.824030679946192e-08,
        1.0
      ],
      "name": "Sketchfab_model"
    },
    {
      "children": [
        2
      ],
      "name": "root"
    },
    {
      "children": [
        3
      ],
      "matrix": [
        1.0,
        0.0,
        0.0,
        0.0,
        0.0,
        2.220446049250313e-16,
        1.0,
        0.0,
        0.0,
        -1.0,
        2.220446049250313e-16,
        0.0,
        0.0,
        0.0,
        0.0,
        1.0
      ],
      "name": "GLTF_SceneRootNode"
    },
    {
      "children": [
        4,
        5,
        6,
        7,
        8,
        9,
        10,
        11,
        12,
        13,
        14,
        15,
        16,
        17
      ],
      "matrix": [
        4.364676475524902,
        0.0,
        0.0,
        0.0,
        0.0,
        -7.358294454568339e-07,
        4.36467647552484,
        0.0,
        0.0,
        -4.36467647552484,
        -7.358294454568339e-07,
        0.0,
        -0.013596616685390472,
        1.509856104850769,
        -0.004890353884547949,
        1.0
      ],
      "name": "Mesh_0"
    },
    {
      "mesh": 0,
      "name": "Object_4"
    },
    {
      "mesh": 1,
      "name": "Object_5"
    },
    {
      "mesh": 2,
      "name": "Object_6"
    },
    {
      "mesh": 3,
      "name": "Object_7"
    },
    {
      "mesh": 4,
      "name": "Object_8"
    },
    {
      "mesh": 5,
      "name": "Object_9"
    },
    {
      "mesh": 6,
      "name": "Object_10"
    },
    {
      "mesh": 7,
      "name": "Object_11"
    },
    {
      "mesh": 8,
      "name": "Object_12"
    },
    {
      "mesh": 9,
      "name": "Object_13"
    },
    {
      "mesh": 10,
      "name": "Object_14"
    },
    {
      "mesh": 11,
      "name": "Object_15"
    },
    {
      "mesh": 12,
      "name": "Object_16"
    },
    {
      "mesh": 13,
      "name": "Object_17"
    }
  ],
  "scene": 0,
  "scenes": [
    {
      "name": "Sketchfab_Scene",
      "nodes": [
        0
      ]
    }
  ]
}
